<?xml version="1.0" encoding="utf-8"?>
<!-- Generator: Adobe Illustrator 16.0.0, SVG Export Plug-In . SVG Version: 6.00 Build 0)  -->
<!DOCTYPE svg PUBLIC "-//W3C//DTD SVG 1.1//EN" "http://www.w3.org/Graphics/SVG/1.1/DTD/svg11.dtd">
<svg version="1.1" id="Capa_1" xmlns="http://www.w3.org/2000/svg" xmlns:xlink="http://www.w3.org/1999/xlink" x="0px" y="0px"
	 width="250px" height="250px" viewBox="0 0 250 250" enable-background="new 0 0 250 250" xml:space="preserve">
<g>
	<path fill-rule="evenodd" clip-rule="evenodd" fill="#444B55" d="M229.884,93.562c0,24.243,0,47.956,0,71.67
		c-0.001,15.667,0.006,31.335-0.014,47.002c-0.006,4.661-2.438,7.055-7.165,7.058c-20.204,0.013-40.409,0.011-60.614,0.001
		c-4.975-0.003-7.324-2.383-7.325-7.45c-0.005-29.709,0.007-59.416,0.013-89.125c0-1.096,0-2.192,0-3.451
		c-12.572,0-24.944,0-37.374,0c-0.222,0.705-0.402,1.453-0.688,2.157c-1.034,2.542-3.625,4.113-6.335,3.882
		c-2.747-0.235-5.036-2.167-5.499-4.932c-0.496-2.964-0.478-5.988,0.021-8.945c0.54-3.211,3.104-4.923,7.088-4.932
		c11.986-0.027,23.972-0.019,35.957-0.02c4.195-0.001,8.393-0.055,12.585,0.032c4.276,0.089,6.879,2.793,6.871,6.978
		c-0.043,21.571-0.093,43.142-0.134,64.712c-0.017,8.563-0.017,17.123-0.022,25.685c-0.003,0.836-0.001,1.672-0.001,2.656
		c16.769,0,33.28,0,49.813,0c0.668-0.833,0.349-1.813,0.349-2.712c0.017-39.468,0.006-78.937,0.043-118.404
		c0.003-1.443-0.476-2.321-1.579-3.196c-25.806-20.483-51.597-40.987-77.347-61.54c-1.733-1.383-2.999-1.351-4.709-0.003
		c-25.956,20.433-51.942,40.829-77.96,61.183c-1.138,0.891-1.262,1.85-1.26,3.082c0.015,11.301,0.027,22.603-0.023,33.903
		c-0.016,3.326-2.184,5.867-5.209,6.401c-2.769,0.49-5.551-0.997-6.743-3.586c-0.594-1.29-0.575-2.657-0.574-4.026
		c0.008-7.534,0.015-15.068,0.023-22.603c0-0.573,0-1.146,0-1.765c-1.256,0.085-1.798,0.946-2.52,1.475
		c-3.287,2.403-6.862,2.169-9.148-0.652c-2.372-2.927-1.85-6.662,1.405-9.227c10.352-8.158,20.734-16.273,31.103-24.411
		c20.464-16.063,41.072-31.95,61.311-48.294c7.055-5.696,16.982-5.586,23.904,0c30.301,24.452,60.867,48.578,91.361,72.79
		c2.431,1.931,3.833,4.22,3.061,7.321c-0.6,2.416-2.287,3.937-4.775,4.508c-1.894,0.435-3.544-0.097-5.073-1.171
		C231.877,95.037,231.076,94.432,229.884,93.562z"/>
	<path fill-rule="evenodd" clip-rule="evenodd" fill="#444B55" d="M25.331,177.011c0-4.95,0.12-9.913-0.034-14.868
		c-0.15-4.868,1.698-8.815,4.997-12.202c4.459-4.578,10.012-7.426,15.884-9.633c15.667-5.886,31.917-7.324,48.479-5.934
		c11.76,0.988,23.137,3.506,33.695,9.01c3.121,1.627,6.015,3.604,8.528,6.096c3.913,3.876,5.788,8.445,5.491,14.073
		c-0.293,5.548-0.196,11.128-0.039,16.687c0.117,4.148-1.379,7.487-4.215,10.358c-4.106,4.159-9.112,6.938-14.47,9.038
		c-1.878,0.737-2.341,1.649-2.29,3.528c0.133,4.875-0.083,9.761,0.065,14.635c0.124,4.059-1.401,7.302-4.161,10.11
		c-4.039,4.11-8.951,6.91-14.245,8.924c-28.141,10.708-56.127,10.472-83.829-1.628c-4.01-1.753-7.634-4.21-10.728-7.371
		c-2.766-2.827-4.165-6.13-4.104-10.154c0.095-6.331-0.084-12.667-0.027-18.999c0.042-4.595,2.073-8.387,5.177-11.664
		C13.897,182.381,19.42,179.518,25.331,177.011z M83.796,173.624c7.795,0.068,15.563-0.403,23.254-1.62
		c6.579-1.041,13.171-2.257,18.911-5.953c4.848-3.122,4.995-6.906,0.507-10.486c-3.542-2.824-7.719-4.413-12.029-5.503
		c-19.752-4.995-39.587-4.919-59.403-0.446c-4.992,1.127-9.888,2.799-13.997,6.061c-4.279,3.397-4.128,7.143,0.374,10.185
		c3.004,2.03,6.39,3.21,9.867,4.14C61.937,172.853,72.835,173.524,83.796,173.624z M37.941,177.539
		c-0.411,5.818,0.377,7.222,5.601,9.764c2.306,1.121,4.684,2.07,7.148,2.795c16.865,4.963,34.013,5.579,51.33,3.244
		c7.729-1.041,15.321-2.7,22.349-6.264c5.182-2.627,5.792-3.866,5.149-9.404C99.03,189.198,68.583,189.155,37.941,177.539z
		 M108.706,214.911c-30.648,11.662-61.067,11.503-91.516-0.003c-0.53,5.984-0.045,6.879,5.266,9.585
		c2.978,1.517,6.115,2.644,9.327,3.514c15.564,4.221,31.389,4.728,47.312,2.924c8.419-0.952,16.703-2.692,24.374-6.518
		C108.714,221.797,109.253,220.672,108.706,214.911z M94.84,206.977c-1.498,0-2.999-0.059-4.494,0.01
		c-10.473,0.469-20.861-0.173-31.095-2.531c-9.797-2.258-19.282-5.328-27.357-11.629c-4.706-3.671-4.876-3.742-10.162-0.573
		c-0.731,0.438-1.443,0.923-2.104,1.461c-3.465,2.815-3.479,5.939-0.017,8.747c2.917,2.366,6.375,3.649,9.938,4.571
		c18.758,4.856,37.728,4.763,56.779,2.225C89.227,208.871,92.143,208.448,94.84,206.977z"/>
	<path fill-rule="evenodd" clip-rule="evenodd" fill="#444B55" d="M217.424,31.46c-4.291,0-8.275,0-12.269,0
		c-0.62,1.481-0.189,2.958-0.366,4.383c-0.37,2.987-2.514,5.166-5.51,5.512c-2.812,0.325-5.851-1.226-6.426-3.975
		c-1.381-6.581-1.079-12.176,4.908-16.506c1.852-1.34,3.887-2.043,6.216-2.012c4.788,0.066,9.578,0.007,14.367,0.045
		c6.102,0.049,11.464,5.328,11.517,11.436c0.068,8.038,0.056,16.077,0.025,24.115c-0.017,4.263-2.721,7.152-6.445,7.028
		c-3.596-0.118-6.018-3.009-6.018-7.186C217.421,46.783,217.424,39.265,217.424,31.46z"/>
	<path fill-rule="evenodd" clip-rule="evenodd" fill="#FEFEFE" d="M83.796,173.624c-10.961-0.1-21.859-0.771-32.516-3.624
		c-3.477-0.93-6.863-2.109-9.867-4.14c-4.502-3.042-4.653-6.787-0.374-10.185c4.109-3.262,9.004-4.934,13.997-6.061
		c19.816-4.473,39.651-4.549,59.403,0.446c4.31,1.09,8.487,2.679,12.029,5.503c4.488,3.58,4.341,7.364-0.507,10.486
		c-5.739,3.696-12.332,4.912-18.911,5.953C99.358,173.221,91.591,173.692,83.796,173.624z"/>
	<path fill-rule="evenodd" clip-rule="evenodd" fill="#FEFEFE" d="M37.941,177.539c30.642,11.616,61.089,11.659,91.576,0.135
		c0.643,5.538,0.033,6.777-5.149,9.404c-7.028,3.563-14.62,5.223-22.349,6.264c-17.317,2.335-34.465,1.719-51.33-3.244
		c-2.464-0.725-4.842-1.674-7.148-2.795C38.318,184.761,37.53,183.357,37.941,177.539z"/>
	<path fill-rule="evenodd" clip-rule="evenodd" fill="#FEFEFE" d="M108.706,214.911c0.547,5.761,0.008,6.886-5.238,9.502
		c-7.671,3.825-15.955,5.565-24.374,6.518c-15.922,1.804-31.747,1.297-47.312-2.924c-3.212-0.87-6.349-1.997-9.327-3.514
		c-5.311-2.706-5.795-3.601-5.266-9.585C47.639,226.414,78.058,226.573,108.706,214.911z"/>
	<path fill-rule="evenodd" clip-rule="evenodd" fill="#FEFEFE" d="M94.84,206.977c-2.697,1.472-5.613,1.895-8.513,2.28
		c-19.051,2.538-38.021,2.632-56.779-2.225c-3.563-0.922-7.021-2.205-9.938-4.571c-3.461-2.808-3.448-5.932,0.017-8.747
		c0.661-0.538,1.373-1.022,2.104-1.461c5.285-3.169,5.456-3.098,10.162,0.573c8.076,6.301,17.561,9.371,27.357,11.629
		c10.234,2.358,20.622,3,31.095,2.531C91.841,206.918,93.342,206.977,94.84,206.977z"/>
</g>
</svg>
