<?xml version="1.0" encoding="utf-8"?>
<!-- Generator: Adobe Illustrator 16.0.0, SVG Export Plug-In . SVG Version: 6.00 Build 0)  -->
<!DOCTYPE svg PUBLIC "-//W3C//DTD SVG 1.1//EN" "http://www.w3.org/Graphics/SVG/1.1/DTD/svg11.dtd">
<svg version="1.1" id="Capa_1" xmlns="http://www.w3.org/2000/svg" xmlns:xlink="http://www.w3.org/1999/xlink" x="0px" y="0px"
	 width="121px" height="121px" viewBox="0 0 121 121" enable-background="new 0 0 121 121" xml:space="preserve">
<path fill="#2A91CF" d="M26.483,1.956c22.17,0,44.341,0,66.509,0c2.366,1.454,3.077,3.594,3.069,6.312
	c-0.068,18.06-0.041,36.12-0.021,54.18c0,0.919-0.267,1.888,0.298,2.907c3.452,0,6.932,0.034,10.405-0.01
	c2.844-0.034,5.838-0.196,7.051,3.094c1.169,3.174-1.22,4.929-3.233,6.757C99.261,85.45,88.016,95.767,76.658,105.961
	c-5.172,4.643-10.052,9.618-15.61,13.825c-0.872,0-1.744,0-2.618,0c-1.013-0.785-2.084-1.503-3.03-2.363
	C39.576,103.061,23.777,88.666,7.938,74.317c-1.887-1.71-3.231-3.564-2.159-6.129c1.016-2.432,3.204-2.9,5.643-2.854
	c3.979,0.076,7.963,0.02,12.032,0.02c0-1.273,0-2.228,0-3.18c0-17.978,0.032-35.955-0.037-53.932
	C23.406,5.531,24.14,3.409,26.483,1.956z M32.843,11.025c-0.57,0.982-0.334,1.964-0.336,2.902
	c-0.016,13.086-0.011,26.173-0.011,39.259c-0.001,5.41,0.055,10.819-0.024,16.227c-0.049,3.417-1.597,4.861-5.015,4.937
	c-1.776,0.037-3.553,0.006-5.991,0.006c13.106,11.922,25.666,23.346,38.278,34.818c12.637-11.505,25.204-22.945,38.243-34.816
	c-2.019,0-3.229,0-4.442,0c-5.5-0.006-6.562-1.063-6.562-6.556c-0.002-17.886,0.002-35.771-0.016-53.656
	c0-1.022,0.264-2.094-0.329-3.121C68.7,11.025,50.753,11.025,32.843,11.025z"/>
<path fill="#2A91CF" d="M66.586,88.229c0,3.327,0,6.45,0,9.91c-4.559,0-8.967,0-13.388,0c-0.145-0.224-0.431-0.46-0.411-0.66
	c0.567-5.193-0.809-8.677-6.038-11.479c-5.389-2.885-8.188-8.512-8.107-15.35c4.632,0,9.081,0,13.56,0
	c1.974,4.974,4.415,6.544,9.206,5.682c3.179-0.574,5.078-2.483,5.229-5.815c0.165-3.532-1.654-5.671-4.993-6.432
	c-2.907-0.665-5.95-0.479-8.841-1.438c-8.041-2.672-13.588-9.316-14.148-17.13c-0.683-9.485,2.922-16.391,11.316-20.133
	c3.207-1.43,2.631-3.593,2.661-5.912c0.082-6.671-0.86-6.096,6.151-6.116c0.408-0.001,0.818-0.003,1.228,0
	c7.766,0.031,6.733-0.56,6.582,6.444c-0.059,2.734,0.786,3.939,3.287,5.1c5.771,2.681,9.104,7.595,10.63,13.709
	c0.634,2.555,0.1,4.215-3.166,4c-3.392-0.221-6.808-0.05-10.142-0.05c-1.868-5.17-4.685-7.18-9.087-6.295
	c-3.029,0.609-5.208,2.311-5.45,5.709c-0.236,3.297,1.251,5.488,4.372,6.48c1.151,0.366,2.387,0.542,3.596,0.624
	c10.148,0.697,18.173,7.038,19.873,15.75c1.9,9.75-2.624,17.916-12.538,22.642C67.597,87.646,67.249,87.862,66.586,88.229z"/>
</svg>
