<svg id="Слой_6" data-name="Слой 6" xmlns="http://www.w3.org/2000/svg" viewBox="0 0 129.35 112.13"><defs><style>.cls-1,.cls-2,.cls-4,.cls-5,.cls-6{fill:none;}.cls-1{stroke:#4c4c4c;}.cls-1,.cls-2,.cls-4,.cls-5{stroke-miterlimit:10;}.cls-1,.cls-2{stroke-width:5.35px;}.cls-2,.cls-6{stroke:#464646;}.cls-3{fill:#464646;}.cls-4,.cls-5{stroke:#e18f45;}.cls-4{stroke-width:3.26px;}.cls-5{stroke-width:3px;}.cls-6{stroke-width:5px;}</style></defs><title>8</title><path class="cls-1" d="M602.83,332.66" transform="translate(-567.83 -235.36)"/><path class="cls-2" d="M602.83,332.66H577.31a6.83,6.83,0,0,1-6.81-6.81v-81a6.83,6.83,0,0,1,6.81-6.81H687.69a6.83,6.83,0,0,1,6.81,6.81v81a6.83,6.83,0,0,1-6.81,6.81H667.08" transform="translate(-567.83 -235.36)"/><line class="cls-2" x1="2.67" y1="20.88" x2="128.01" y2="20.88"/><circle class="cls-3" cx="96.88" cy="11.75" r="3.63"/><circle class="cls-3" cx="106.13" cy="11.75" r="3.63"/><circle class="cls-3" cx="115.88" cy="11.75" r="3.63"/><path class="cls-4" d="M614.13,287.51a13.86,13.86,0,0,1-.3-2.87,12.82,12.82,0,1,1,25.63,0,13.84,13.84,0,0,1-.36,3.14" transform="translate(-567.83 -235.36)"/><path class="cls-5" d="M609.33,288.82a14.26,14.26,0,0,1-.92-6c0.56-7.84,8.23-16.43,18.17-16.59,10.29-.17,18.13,8.79,18.83,16.84a15.12,15.12,0,0,1-.92,6.5" transform="translate(-567.83 -235.36)"/><path class="cls-6" d="M638.73,317.05v-13.9a3.36,3.36,0,0,0-3.35-3.35h-0.59a3.34,3.34,0,0,0-2.4,1c-0.59.6-1,2.94-1,2.94" transform="translate(-567.83 -235.36)"/><path class="cls-6" d="M622.41,316.24l0.63-26c0-1.81,1.18-6.16,3-6.16l2.23,0c1.84,0,2.91,4.62,2.91,6.44l0.41,24.39" transform="translate(-567.83 -235.36)"/><path class="cls-6" d="M638.72,307.3V307a3.36,3.36,0,0,1,3.35-3.35h0.59A3.36,3.36,0,0,1,646,307v12.48" transform="translate(-567.83 -235.36)"/><path class="cls-6" d="M648.28,346.56" transform="translate(-567.83 -235.36)"/><path class="cls-6" d="M646.14,308.69a3.36,3.36,0,0,1,2.78-1.48h0.59a3.36,3.36,0,0,1,3.35,3.35v9.82" transform="translate(-567.83 -235.36)"/><path class="cls-6" d="M652.86,320.06V331a11.92,11.92,0,0,1-1.42,4.17c-1.28,2.41-3.78,4.13-3.67,10.91" transform="translate(-567.83 -235.36)"/><path class="cls-6" d="M622.91,347.18l-1-8.33s-4.35-2.53-5.28-5.64-5.43-22.66-6.86-24.94,0.85-5.86,3.85-3.76,6.73,12.56,8.38,12.25" transform="translate(-567.83 -235.36)"/><path class="cls-6" d="M621.79,316.75s0.83,0.63.63-.72" transform="translate(-567.83 -235.36)"/></svg>