<?xml version="1.0" encoding="utf-8"?>
<!-- Generator: Adobe Illustrator 16.0.0, SVG Export Plug-In . SVG Version: 6.00 Build 0)  -->
<!DOCTYPE svg PUBLIC "-//W3C//DTD SVG 1.1//EN" "http://www.w3.org/Graphics/SVG/1.1/DTD/svg11.dtd">
<svg version="1.1" id="Layer_1" xmlns="http://www.w3.org/2000/svg" xmlns:xlink="http://www.w3.org/1999/xlink" x="0px" y="0px"
	 width="768px" height="768px" viewBox="299 0 768 768" enable-background="new 299 0 768 768" xml:space="preserve">
<circle fill="#FF4F19" cx="683" cy="384" r="384"/>
<path fill="#EE2600" d="M1067,384c0-55.73-11.887-108.679-33.239-156.472h-0.578v-1.318c-2.541-5.631-5.215-11.189-8.017-16.672
	L923.469,107.841H442.531v114.144l19.948,19.949h0.131V660.16l82.196,82.197C587.69,758.906,634.28,768,683,768
	C895.078,768,1067,596.077,1067,384z"/>
<rect x="462.605" y="182.445" fill="#FFFFFF" width="440.79" height="477.72"/>
<rect x="683" y="182.445" fill="#E1E1E3" width="220.396" height="477.72"/>
<rect x="462.605" y="597.96" fill="#C8C6CC" width="440.79" height="62.203"/>
<rect x="683" y="597.96" fill="#8B8992" width="220.396" height="62.204"/>
<rect x="442.535" y="107.841" fill="#FFDB2D" width="480.945" height="114.149"/>
<rect x="683" y="107.835" fill="#FEC000" width="240.466" height="114.149"/>
<g>
	<rect x="513.756" y="284.55" fill="#D9D9DB" width="169.244" height="29.244"/>
	<rect x="513.756" y="360.84" fill="#D9D9DB" width="169.244" height="29.244"/>
	<rect x="513.756" y="437.145" fill="#D9D9DB" width="169.244" height="29.244"/>
	<rect x="513.756" y="513.449" fill="#D9D9DB" width="338.489" height="29.244"/>
</g>
<rect x="683" y="513.435" fill="#AEADB3" width="169.245" height="29.25"/>
<path fill="#00A753" d="M809.667,422.648c-5.107-10.694-12.374-19.874-21.788-27.535c-9.42-7.665-20.912-14.047-34.479-19.156
	c-13.572-5.102-28.66-9.892-45.254-14.366c-12.772-3.19-24.026-6.229-33.763-9.098c-9.738-2.873-17.801-6.063-24.185-9.581
	c-6.389-3.508-11.256-7.58-14.606-12.21c-3.352-4.624-5.031-10.453-5.031-17.479c0-12.128,4.467-21.549,13.409-28.253
	c8.931-6.705,22.508-10.056,40.705-10.056c10.213,0,20.269,1.28,30.17,3.829c9.89,2.56,19.075,5.67,27.535,9.338
	c8.457,3.675,15.638,7.423,21.551,11.255c5.903,3.833,9.975,6.871,12.21,9.097l29.212-53.635
	c-15.008-10.211-32.563-19.07-52.675-26.577c-14.059-5.241-29.077-8.61-45.009-10.188v-70.906h-49.337v72.107
	c-6.907,1.138-13.621,2.677-20.108,4.677c-15.01,4.631-28.178,11.418-39.507,20.352c-11.338,8.943-20.197,20.111-26.579,33.523
	c-6.391,13.407-9.58,28.733-9.58,45.972c0,13.091,1.993,24.348,5.986,33.762c3.988,9.42,9.976,17.719,17.957,24.898
	c7.978,7.186,17.959,13.41,29.933,18.678c11.975,5.27,26.098,10.137,42.379,14.607c13.41,3.833,25.537,7.346,36.397,10.535
	c10.848,3.192,20.109,6.702,27.772,10.533c7.664,3.83,13.567,8.31,17.723,13.41c4.144,5.109,6.223,11.337,6.223,18.677
	c0,23.307-18.198,34.958-54.591,34.958c-13.095,0-25.858-1.597-38.31-4.79c-12.453-3.187-23.786-7.096-34.001-11.729
	c-10.219-4.623-19.079-9.256-26.578-13.886c-7.504-4.625-12.689-8.378-15.562-11.253l-29.212,56.982
	c19.791,14.055,42.139,24.902,67.042,32.566c14.103,4.337,28.31,7.405,42.614,9.283v72.049h49.337V562.51
	c10.762-0.816,21.237-2.371,31.359-4.823c15.16-3.664,28.569-9.491,40.227-17.479c11.65-7.977,20.906-18.435,27.774-31.366
	c6.858-12.932,10.294-28.492,10.294-46.692C817.332,446.517,814.772,433.346,809.667,422.648z"/>
</svg>
