<?xml version="1.0" encoding="iso-8859-1"?>
<!-- Generator: Adobe Illustrator 19.0.0, SVG Export Plug-In . SVG Version: 6.00 Build 0)  -->
<svg version="1.1" id="Layer_1" xmlns="http://www.w3.org/2000/svg" xmlns:xlink="http://www.w3.org/1999/xlink" x="0px" y="0px"
	 viewBox="0 0 512 512" style="enable-background:new 0 0 512 512;" xml:space="preserve">
<circle style="fill:#FF4F19;" cx="256" cy="256" r="256"/>
<path style="fill:#EE2600;" d="M512,256c0-37.153-7.925-72.452-22.16-104.314h-0.385v-0.879c-1.694-3.754-3.477-7.46-5.345-11.115
	l-67.798-67.798H95.687v76.096l13.299,13.299h0.087v278.818l54.798,54.798C192.46,505.937,223.52,512,256,512
	C397.385,512,512,397.385,512,256z"/>
<rect x="109.07" y="121.63" style="fill:#FFFFFF;" width="293.86" height="318.48"/>
<rect x="256" y="121.63" style="fill:#E1E1E3;" width="146.93" height="318.48"/>
<rect x="109.07" y="398.64" style="fill:#C8C6CC;" width="293.86" height="41.469"/>
<rect x="256" y="398.64" style="fill:#8B8992;" width="146.93" height="41.47"/>
<path style="fill:#00A753;" d="M348.155,262.869c-1.357-2.84-3.287-5.278-5.787-7.313c-2.502-2.035-5.554-3.73-9.157-5.087
	c-3.604-1.355-7.611-2.627-12.018-3.815c-3.392-0.847-6.381-1.654-8.966-2.416c-2.587-0.763-4.728-1.61-6.423-2.544
	c-1.697-0.932-2.989-2.013-3.879-3.243c-0.89-1.228-1.336-2.776-1.336-4.642c0-3.221,1.186-5.723,3.561-7.503
	c2.372-1.781,5.977-2.671,10.81-2.671c2.712,0,5.383,0.34,8.012,1.017c2.627,0.68,5.066,1.506,7.313,2.48
	c2.246,0.976,4.153,1.971,5.723,2.989c1.568,1.018,2.649,1.825,3.243,2.416l7.758-14.244c-3.986-2.712-8.648-5.065-13.989-7.058
	c-3.734-1.392-7.722-2.287-11.953-2.706v-18.831h-13.103v19.15c-1.834,0.302-3.617,0.711-5.34,1.242
	c-3.986,1.23-7.484,3.033-10.492,5.405c-3.011,2.375-5.364,5.341-7.059,8.903c-1.697,3.561-2.544,7.631-2.544,12.209
	c0,3.477,0.529,6.466,1.59,8.966c1.059,2.502,2.649,4.706,4.769,6.613c2.118,1.908,4.769,3.561,7.949,4.96s6.931,2.692,11.255,3.879
	c3.561,1.018,6.782,1.951,9.666,2.798c2.881,0.848,5.341,1.78,7.376,2.798c2.035,1.017,3.603,2.206,4.706,3.561
	c1.101,1.357,1.653,3.011,1.653,4.96c0,6.19-4.833,9.284-14.498,9.284c-3.478,0-6.867-0.424-10.174-1.272
	c-3.307-0.846-6.317-1.885-9.03-3.115c-2.714-1.228-5.067-2.458-7.058-3.688c-1.993-1.228-3.37-2.225-4.133-2.989l-7.758,15.134
	c5.256,3.732,11.191,6.613,17.805,8.648c3.745,1.152,7.518,1.967,11.317,2.466v19.134h13.103v-18.731
	c2.858-0.217,5.64-0.63,8.328-1.281c4.026-0.973,7.587-2.521,10.683-4.642c3.094-2.118,5.552-4.896,7.376-8.33
	c1.822-3.434,2.734-7.567,2.734-12.4C350.19,269.208,349.51,265.71,348.155,262.869z"/>
<rect x="95.69" y="71.894" style="fill:#FFDB2D;" width="320.63" height="76.1"/>
<rect x="256" y="71.89" style="fill:#FEC000;" width="160.31" height="76.1"/>
<g>
	<rect x="143.17" y="189.7" style="fill:#D9D9DB;" width="112.83" height="19.496"/>
	<rect x="143.17" y="240.56" style="fill:#D9D9DB;" width="112.83" height="19.496"/>
	<rect x="143.17" y="291.43" style="fill:#D9D9DB;" width="112.83" height="19.496"/>
	<rect x="143.17" y="342.3" style="fill:#D9D9DB;" width="225.66" height="19.496"/>
</g>
<rect x="256" y="342.29" style="fill:#AEADB3;" width="112.83" height="19.5"/>
<g>
</g>
<g>
</g>
<g>
</g>
<g>
</g>
<g>
</g>
<g>
</g>
<g>
</g>
<g>
</g>
<g>
</g>
<g>
</g>
<g>
</g>
<g>
</g>
<g>
</g>
<g>
</g>
<g>
</g>
</svg>
