<?xml version="1.0" encoding="utf-8"?>
<!-- Generator: Adobe Illustrator 16.0.0, SVG Export Plug-In . SVG Version: 6.00 Build 0)  -->
<!DOCTYPE svg PUBLIC "-//W3C//DTD SVG 1.1//EN" "http://www.w3.org/Graphics/SVG/1.1/DTD/svg11.dtd">
<svg version="1.1" id="Layer_1" xmlns="http://www.w3.org/2000/svg" xmlns:xlink="http://www.w3.org/1999/xlink" x="0px" y="0px"
	 width="800px" height="800px" viewBox="0 0 800 800" enable-background="new 0 0 800 800" xml:space="preserve">
<path d="M485.268,85.374c0-46.777,36.813-84.678,82.22-84.678c45.417,0,82.263,37.901,82.263,84.678
	c0,46.81-36.846,84.679-82.263,84.679C522.08,170.052,485.268,132.184,485.268,85.374z M657.956,209.972
	c-11.955-9.538-24.372-17.697-38.757-22.83c-13.362-4.773-27.446-7.432-41.529-8.42l21.227,229.492l-30.636,36.99l-35.031-36.99
	l26.587-229.817c-15.36,0.532-30.808,3.071-45.31,8.398c-5.918,2.17-11.709,4.817-17.145,8.084
	c-9.549,5.75-18.325,12.685-26.619,20.269c-40.991,37.392-63.185,102.311-67.879,198.448c-0.816,16.493,11.505,30.523,27.51,31.349
	c0.506,0.032,1,0.043,1.494,0.043c15.361,0,28.188-12.402,28.961-28.376c3.189-65.124,15.727-113.681,36.33-142.598
	c-1.482,30.305-4.104,85.264-6.446,141.417c-0.149,1.019-0.43,1.985-0.505,3.018l-23.191,337.694
	c-1.472,21.344,14.147,39.854,34.868,41.373c0.903,0.064,1.815,0.097,2.697,0.097c19.571,0,36.082-15.603,37.489-36.013
	l18.262-265.862c2.878-0.824,5.715-1.553,8.142-1.553c2.891,0,5.663,0.521,8.465,0.879l16.888,268.706
	c1.289,20.486,17.841,36.231,37.51,36.231c0.807,0,1.645-0.022,2.473-0.076c20.73-1.389,36.447-19.814,35.115-41.179L648.857,439.67
	c-0.106-1.78-0.503-3.461-0.826-5.144c-1.676-48.85-7.111-121.169-10.227-160.47c21.022,28.961,32.859,77.018,34.148,141.667
	c0.334,16.286,13.257,29.265,29.616,29.254c16.027-0.338,28.746-13.987,28.425-30.49C728.018,315.3,703.782,246.484,657.956,209.972
	z M104.579,0h213.219c19.089,0,34.589,15.831,34.589,35.331v9.57H191.739c-42.904,0-77.783,35.677-77.783,79.503v164.161h-9.377
	c-19.068,0-34.579-15.832-34.579-35.33V35.331C70,15.831,85.511,0,104.579,0z M407.688,71.409H189.021
	c-27.026,0-49.145,22.514-49.145,50.032v223.807c0,27.517,22.118,50.032,49.145,50.032h218.666
	c27.027,0,49.146-22.515,49.146-50.032V121.441C456.833,93.923,434.715,71.409,407.688,71.409z M415.873,345.248
	c0,4.523-3.749,8.343-8.186,8.343H189.021c-4.436,0-8.185-3.82-8.185-8.343V121.441c0-4.514,3.749-8.333,8.185-8.333h218.666
	c4.437,0,8.186,3.819,8.186,8.333V345.248z M234.042,167.893v130.913h128.615V167.893H234.042z M323.492,242.72
	c-15.974,0-28.908-13.173-28.908-29.427s12.934-29.427,28.908-29.427c15.962,0,28.896,13.172,28.896,29.427
	S339.454,242.72,323.492,242.72z"/>
</svg>
