<?xml version="1.0" encoding="utf-8"?>
<!-- Generator: Adobe Illustrator 16.0.0, SVG Export Plug-In . SVG Version: 6.00 Build 0)  -->
<!DOCTYPE svg PUBLIC "-//W3C//DTD SVG 1.1//EN" "http://www.w3.org/Graphics/SVG/1.1/DTD/svg11.dtd">
<svg version="1.1" id="Capa_1" xmlns="http://www.w3.org/2000/svg" xmlns:xlink="http://www.w3.org/1999/xlink" x="0px" y="0px"
	 width="591px" height="591px" viewBox="0 0 591 591" enable-background="new 0 0 591 591" xml:space="preserve">
<g>
	<path fill-rule="evenodd" clip-rule="evenodd" fill="#FFFFFF" d="M304,1c94.646,0,189.293,0.021,283.939-0.086
		c3.291-0.004,4.164,0.477,4.162,4.024c-0.114,194.292-0.116,388.584,0.008,582.875c0.003,3.779-0.987,4.271-4.422,4.27
		c-194.125-0.093-388.25-0.093-582.375,0c-3.435,0.001-4.424-0.491-4.421-4.27C1.015,393.688,1.015,199.563,0.897,5.438
		c-0.002-3.89,1.026-4.53,4.664-4.525C100.041,1.023,194.52,1,289,1c0.335,0.516,0.273,0.98-0.182,1.393
		c-5.449,1.87-11.202,1.207-16.779,1.684c-34.053,2.917-66.547,11.455-97.618,25.628c-35.332,16.118-66.253,38.458-92.52,66.933
		c-32.28,34.993-54.852,75.521-67.695,121.527c-8.89,31.845-11.869,64.325-9.627,97.009c4.447,64.834,27.86,122.305,70.52,171.633
		c27.188,31.438,59.541,56.199,97.184,73.809c27.799,13.004,56.996,21.399,87.516,25.293c12.089,1.542,24.252,2.323,36.325,2.283
		c29.083-0.096,57.708-4.097,85.658-12.632c38.326-11.704,72.701-30.556,103.286-56.328c27.813-23.438,50.376-51.191,67.971-83.067
		c17.365-31.46,28.454-65.01,33.235-100.504c5.419-40.23,2.936-80.091-8.103-119.28c-11.654-41.379-31.468-78.5-59.477-111.02
		c-39.962-46.398-89.803-77.379-149.028-93.001c-20.007-5.277-40.418-8.375-61.146-9.066c-1.495-0.05-3.011-0.016-4.339-0.894
		C303.725,1.984,303.665,1.518,304,1z"/>
	<path fill-rule="evenodd" clip-rule="evenodd" fill="#DCE6F0" d="M304,1c-0.015,0.29-0.003,0.58,0.033,0.868
		c-5.023,2.614-10.046,2.623-15.068-0.006C288.998,1.575,289.009,1.288,289,1C294,1,299,1,304,1z"/>
	<path fill-rule="evenodd" clip-rule="evenodd" fill="#1F78A9" d="M288.965,1.861c5.023,0.002,10.045,0.004,15.068,0.006
		c65.91,2.084,124.92,23.327,176.283,64.694c55.398,44.617,90.93,102.012,104.253,171.851
		c16.842,88.282-2.323,168.946-58.015,239.689c-46.743,59.377-108.279,95.851-182.969,107.427
		c-90.104,13.965-170.838-8.842-240.125-68.575C49.981,470.848,16.849,412.306,6.529,342.572
		C-8.764,239.231,22.046,150.525,98.301,78.89c45.887-43.107,101.161-67.539,163.777-75.088
		C271.016,2.725,279.969,2.034,288.965,1.861z"/>
	<path fill-rule="evenodd" clip-rule="evenodd" fill="#FFFFFF" d="M183.714,209.03c4.844-7.902,9.583-15.254,13.892-22.85
		c1.724-3.039,3.714-4.04,7.103-3.941c11.404,0.33,22.729-0.224,34.017,3.084c17.208,5.043,30.634,19.246,30.473,40.394
		c7.172-4.896,14.117-9.585,21.004-14.356c4.666-3.233,9.819-4.769,14.931-2.065c3.416,1.806,5.392,0.539,7.885-1.162
		c20.122-13.725,40.274-27.406,60.424-41.091c4.109-2.791,8.325-5.432,12.335-8.356c2.112-1.541,3.544-1.845,5.097,0.651
		c1.396,2.242,1.82,3.577-0.951,5.423c-18.206,12.125-36.251,24.491-54.355,36.769c-6.437,4.365-12.839,8.785-19.37,13.006
		c-2.007,1.298-2.576,2.571-1.988,4.908c1.962,7.796-0.023,12.921-6.757,17.465c-15.114,10.199-30.132,20.554-45.49,30.375
		c-9.392,6.006-23.28,2.003-23.938-14.956c-0.258-6.655-0.259-13.339,0.042-19.99c0.165-3.646-1.141-4.371-4.513-4.389
		c-3.512-0.019-4.458,1.033-4.452,4.524c0.102,61.321,0.073,122.643,0.073,183.964c0,22.329,0.076,44.658-0.024,66.987
		c-0.079,17.478-16.433,27.179-31.638,18.664c-8.435-4.723-10.063-13.106-10.074-21.838c-0.066-52.156-0.097-104.313,0.087-156.469
		c0.015-4.262-1.374-5.054-5.063-4.8c-2.229,0.153-2.938,0.986-2.807,3.029c0.075,1.162,0.01,2.332,0.01,3.499
		c0,51.657,0.015,103.314-0.02,154.971c-0.004,6.392-1.048,12.625-5.358,17.665c-5.399,6.316-14.652,8.672-22.151,5.97
		c-8.972-3.233-13.944-9.71-14.239-18.924c-0.176-5.493-0.033-10.997-0.033-16.495c0-78.485-0.016-156.97,0.051-235.455
		c0.003-3.447-0.163-5.531-4.66-5.333c-3.636,0.16-4.315,1.293-4.299,4.63c0.129,25.828,0.094,51.656,0.055,77.484
		c-0.01,6.618-4.245,12.685-9.997,14.654c-5.909,2.023-13.366,0.119-17.333-4.649c-2.759-3.316-3.583-7.472-3.598-11.594
		c-0.104-28.827-0.425-57.662,0.079-86.48c0.319-18.229,11.018-31.015,28.468-36.388c12.661-3.899,25.581-3.122,38.493-3.31
		c2.393-0.035,2.972,1.433,3.933,3.017C173.769,193.036,178.584,200.738,183.714,209.03z"/>
	<path fill-rule="evenodd" clip-rule="evenodd" fill="#FFFFFF" d="M278.163,269.072c0,4.282,0.108,8.11-0.04,11.929
		c-0.092,2.38,0.754,3.41,3.147,3.159c0.824-0.086,1.665-0.011,2.498-0.011c62.825,0,125.65-0.038,188.475,0.09
		c3.96,0.008,5.297-0.653,5.278-5.023c-0.189-43.994-0.193-87.988,0.001-131.981c0.021-4.557-1.311-5.413-5.571-5.403
		c-62.825,0.139-125.65,0.15-188.475-0.02c-4.536-0.012-5.49,1.24-5.421,5.551c0.262,16.494,0.107,32.994,0.103,49.492
		c0,1.332,0.177,2.717-0.125,3.983c-0.455,1.914-1.972,3.123-3.794,3.589c-2.116,0.542-2.167-1.545-2.778-2.718
		c-2.232-4.285-4.587-8.484-8.276-11.71c-1.685-1.473-2.009-3.22-2.001-5.335c0.061-16.998,0.022-33.996,0.042-50.993
		c0.005-4.646,3.069-8.088,7.721-8.67c1.313-0.164,2.663-0.054,3.996-0.054c69.658-0.001,139.315-0.002,208.972,0
		c10.086,0,12.997,2.925,12.997,13.043c0,49.993,0.001,99.987-0.001,149.98c0,9.782-3.325,13.134-13.076,13.135
		c-69.323,0.005-138.647-0.007-207.972,0.042c-2.528,0.001-5.002-0.229-7.334-1.012c-3.241-1.087-5.144-3.343-5.341-7.015
		c-0.698-13.028-0.748-13.027,10.376-20.537C273.447,271.31,275.112,269.634,278.163,269.072z"/>
	<path fill-rule="evenodd" clip-rule="evenodd" fill="#FFFFFF" d="M183.109,176.037c-18.375,1.115-34.595-15.984-34.521-34.744
		c0.07-17.993,15.741-35.46,36.37-34.471c18.004,0.864,33.255,15.827,33.33,34.586C218.364,160.927,201.845,177.175,183.109,176.037
		z"/>
</g>
</svg>
